<?xml version="1.0" encoding="UTF-8" standalone="no"?>
<svg
   xmlns:dc="http://purl.org/dc/elements/1.1/"
   xmlns:cc="http://creativecommons.org/ns#"
   xmlns:rdf="http://www.w3.org/1999/02/22-rdf-syntax-ns#"
   xmlns:svg="http://www.w3.org/2000/svg"
   xmlns="http://www.w3.org/2000/svg"
   xmlns:sodipodi="http://sodipodi.sourceforge.net/DTD/sodipodi-0.dtd"
   xmlns:inkscape="http://www.inkscape.org/namespaces/inkscape"
   viewBox="0 0 31.999996 31.999996"
   height="31.999996"
   width="31.999996"
   xml:space="preserve"
   id="svg2"
   version="1.1"
   sodipodi:docname="coffee.svg"
   inkscape:version="0.92.3 (2405546, 2018-03-11)"><sodipodi:namedview
     pagecolor="#ffffff"
     bordercolor="#666666"
     borderopacity="1"
     objecttolerance="10"
     gridtolerance="10"
     guidetolerance="10"
     inkscape:pageopacity="0"
     inkscape:pageshadow="2"
     inkscape:window-width="640"
     inkscape:window-height="480"
     id="namedview15"
     showgrid="false"
     inkscape:zoom="8.406251"
     inkscape:cx="-17.268857"
     inkscape:cy="8.8298588"
     inkscape:current-layer="svg2" /><metadata
     id="metadata8"><rdf:RDF><cc:Work
         rdf:about=""><dc:format>image/svg+xml</dc:format><dc:type
           rdf:resource="http://purl.org/dc/dcmitype/StillImage" /><dc:title /></cc:Work></rdf:RDF></metadata><defs
     id="defs6"><clipPath
       id="clipPath18"
       clipPathUnits="userSpaceOnUse"><path
         id="path16"
         d="M 0,751.724 H 2332.012 V 0 H 0 Z" /></clipPath></defs><g
     transform="matrix(1.1666667,0,0,-1.1666667,-71.17357,63.017154)"
     id="g10"><g
       transform="matrix(0.03478906,0,0,0.03478906,60.538223,27.315875)"
       id="g899"><g
         id="g32"
         transform="translate(752.5922,373.2364)"><path
           d="m 0,0 c 0,-190.502 -154.433,-344.936 -344.936,-344.936 -190.502,0 -344.936,154.434 -344.936,344.936 0,190.503 154.434,344.936 344.936,344.936 C -154.433,344.936 0,190.503 0,0"
           style="fill:#579fbf;fill-opacity:1;fill-rule:nonzero;stroke:none"
           id="path34"
           inkscape:connector-curvature="0" /></g><g
         id="g36"
         transform="translate(694.3793,429.2686)"><path
           d="m 0,0 c -17.201,90.848 -108.038,102.137 -108.038,102.137 h -404.555 c -13.438,0 -18.585,-13.12 -18.636,-19.692 -0.007,-0.857 0.024,-4.286 0.024,-4.286 0,0 -0.634,-170.898 0.566,-262.175 3.646,-53.889 57.638,-53.87 57.638,-53.87 0,0 183.824,0.538 266.063,1.075 54.216,9.497 59.662,57.056 59.125,83.067 C -51.063,-159.119 17.199,-90.848 0,0 m -108.684,-88.694 c -20.633,-2.578 -37.396,-0.643 -37.396,-0.643 V 37.004 h 39.33 c 0,0 43.846,-12.247 43.846,-58.658 0,-42.544 -21.922,-59.304 -45.78,-67.04"
           style="fill:#ffffff;fill-opacity:1;fill-rule:nonzero;stroke:none"
           id="path38"
           inkscape:connector-curvature="0" /></g><g
         id="g40"
         transform="translate(352.3651,262.2535)"><path
           d="m 0,0 c 4.202,-2.115 6.886,0.513 6.886,0.513 0,0 61.481,56.115 89.179,88.431 24.635,28.91 26.241,77.63 -16.066,95.833 C 37.693,202.98 2.885,163.362 2.885,163.362 c -30.185,33.199 -75.87,31.518 -97.001,9.05 -21.129,-22.468 -13.75,-61.03 2.013,-82.492 C -77.306,69.773 -12.266,11.804 -2.408,2 -2.408,2 -1.69,1.248 0,0"
           style="fill:#ff5f5f;fill-opacity:1;fill-rule:nonzero;stroke:none"
           id="path42"
           inkscape:connector-curvature="0" /></g></g></g></svg>