<?xml version="1.0" encoding="UTF-8" standalone="no"?>
<svg
   xmlns:dc="http://purl.org/dc/elements/1.1/"
   xmlns:cc="http://creativecommons.org/ns#"
   xmlns:rdf="http://www.w3.org/1999/02/22-rdf-syntax-ns#"
   xmlns:svg="http://www.w3.org/2000/svg"
   xmlns="http://www.w3.org/2000/svg"
   xmlns:sodipodi="http://sodipodi.sourceforge.net/DTD/sodipodi-0.dtd"
   xmlns:inkscape="http://www.inkscape.org/namespaces/inkscape"
   viewBox="0 0 18 18"
   xml:space="preserve"
   version="1.1"
   id="svg2"
   sodipodi:docname="plus.svg"
   width="18"
   height="18"
   inkscape:version="0.92.3 (2405546, 2018-03-11)"><sodipodi:namedview
     pagecolor="#ffffff"
     bordercolor="#666666"
     borderopacity="1"
     objecttolerance="10"
     gridtolerance="10"
     guidetolerance="10"
     inkscape:pageopacity="0"
     inkscape:pageshadow="2"
     inkscape:window-width="640"
     inkscape:window-height="480"
     id="namedview12"
     showgrid="false"
     inkscape:zoom="5.5684209"
     inkscape:cx="-39.768075"
     inkscape:cy="15.163379"
     inkscape:current-layer="svg2" /><metadata
     id="metadata8"><rdf:RDF><cc:Work
         rdf:about=""><dc:format>image/svg+xml</dc:format><dc:type
           rdf:resource="http://purl.org/dc/dcmitype/StillImage" /><dc:title /></cc:Work></rdf:RDF></metadata><defs
     id="defs6"><clipPath
       id="clipPath16"
       clipPathUnits="userSpaceOnUse"><path
         id="path18"
         d="M 0,38 H 38 V 0 H 0 Z"
         inkscape:connector-curvature="0" /></clipPath></defs><g
     transform="matrix(0.4375,0,0,-0.4375,0.6875,17.3125)"
     id="g10"
     style="fill:#333333;fill-opacity:1"><g
       id="g12"
       style="fill:#333333;fill-opacity:1"><g
         clip-path="url(#clipPath16)"
         id="g14"
         style="fill:#333333;fill-opacity:1"><g
           transform="translate(32,22)"
           id="g20"
           style="fill:#333333;fill-opacity:1"><path
             id="path22"
             style="fill:#333333;fill-opacity:1;fill-rule:nonzero;stroke:none"
             d="m 0,0 h -10 v 10 c 0,1.657 -1.343,3 -3,3 -1.657,0 -3,-1.343 -3,-3 V 0 h -10 c -1.657,0 -3,-1.343 -3,-3 0,-1.657 1.343,-3 3,-3 h 10 v -10 c 0,-1.657 1.343,-3 3,-3 1.657,0 3,1.343 3,3 V -6 H 0 c 1.657,0 3,1.343 3,3 0,1.657 -1.343,3 -3,3"
             inkscape:connector-curvature="0" /></g></g></g></g></svg>