<?xml version="1.0" encoding="UTF-8" standalone="no"?>
<svg
   xmlns:dc="http://purl.org/dc/elements/1.1/"
   xmlns:cc="http://creativecommons.org/ns#"
   xmlns:rdf="http://www.w3.org/1999/02/22-rdf-syntax-ns#"
   xmlns:svg="http://www.w3.org/2000/svg"
   xmlns="http://www.w3.org/2000/svg"
   xmlns:sodipodi="http://sodipodi.sourceforge.net/DTD/sodipodi-0.dtd"
   xmlns:inkscape="http://www.inkscape.org/namespaces/inkscape"
   height="46"
   width="44"
   version="1.1"
   viewBox="0 0 44 46"
   id="icons"
   sodipodi:docname="options.svg"
   inkscape:version="0.92.3 (2405546, 2018-03-11)">
  <sodipodi:namedview
     pagecolor="#ffffff"
     bordercolor="#666666"
     borderopacity="1"
     objecttolerance="10"
     gridtolerance="10"
     guidetolerance="10"
     inkscape:pageopacity="0"
     inkscape:pageshadow="2"
     inkscape:window-width="640"
     inkscape:window-height="480"
     id="namedview9"
     showgrid="false"
     inkscape:zoom="8.131728"
     inkscape:cx="-16.478308"
     inkscape:cy="20.86827"
     inkscape:current-layer="icons" />
  <metadata
     id="metadata16">
    <rdf:RDF>
      <cc:Work
         rdf:about="">
        <dc:format>image/svg+xml</dc:format>
        <dc:type
           rdf:resource="http://purl.org/dc/dcmitype/StillImage" />
        <dc:title />
      </cc:Work>
    </rdf:RDF>
  </metadata>
  <defs
     id="defs14" />
  <g
     style="fill:#9e9e9e;fill-opacity:1"
     transform="rotate(90,22,22)"
     id="Icon">
    <path
       style="fill:#9e9e9e;fill-opacity:1"
       id="path4"
       d="m 2,8 h 6 v 2 a 2,2 0 0 0 2,2 h 12 a 2,2 0 0 0 2,-2 V 8 H 44 A 2,2 0 0 0 44,4 H 24 V 2 A 2,2 0 0 0 22,0 H 10 A 2,2 0 0 0 8,2 V 4 H 2 A 2,2 0 0 0 2,8 Z M 12,4 h 8 v 4 h -8 z" />
    <path
       style="fill:#9e9e9e;fill-opacity:1"
       id="path6"
       d="M 44,20 H 38 V 18 A 2,2 0 0 0 36,16 H 24 a 2,2 0 0 0 -2,2 v 2 H 2 a 2,2 0 0 0 0,4 h 20 v 2 a 2,2 0 0 0 2,2 h 12 a 2,2 0 0 0 2,-2 v -2 h 6 a 2,2 0 0 0 0,-4 z m -10,4 h -8 v -4 h 8 z" />
    <path
       style="fill:#9e9e9e;fill-opacity:1"
       id="path8"
       d="M 44,36 H 24 V 34 A 2,2 0 0 0 22,32 H 10 a 2,2 0 0 0 -2,2 v 2 H 2 a 2,2 0 0 0 0,4 h 6 v 2 a 2,2 0 0 0 2,2 h 12 a 2,2 0 0 0 2,-2 v -2 h 20 a 2,2 0 0 0 0,-4 z m -24,4 h -8 v -4 h 8 z" />
  </g>
</svg>
