<?xml version="1.0" encoding="UTF-8" standalone="no"?>
<!-- Created with Inkscape (http://www.inkscape.org/) -->

<svg
   xmlns:dc="http://purl.org/dc/elements/1.1/"
   xmlns:cc="http://creativecommons.org/ns#"
   xmlns:rdf="http://www.w3.org/1999/02/22-rdf-syntax-ns#"
   xmlns:svg="http://www.w3.org/2000/svg"
   xmlns="http://www.w3.org/2000/svg"
   xmlns:sodipodi="http://sodipodi.sourceforge.net/DTD/sodipodi-0.dtd"
   xmlns:inkscape="http://www.inkscape.org/namespaces/inkscape"
   version="1.1"
   id="svg2"
   xml:space="preserve"
   width="32"
   height="32"
   viewBox="0 0 32.000001 32.000001"
   sodipodi:docname="logo_bmc_coffee.svg"
   inkscape:version="0.92.3 (2405546, 2018-03-11)"><metadata
     id="metadata8"><rdf:RDF><cc:Work
         rdf:about=""><dc:format>image/svg+xml</dc:format><dc:type
           rdf:resource="http://purl.org/dc/dcmitype/StillImage" /><dc:title></dc:title></cc:Work></rdf:RDF></metadata><defs
     id="defs6" /><sodipodi:namedview
     pagecolor="#ffffff"
     bordercolor="#666666"
     borderopacity="1"
     objecttolerance="10"
     gridtolerance="10"
     guidetolerance="10"
     inkscape:pageopacity="0"
     inkscape:pageshadow="2"
     inkscape:window-width="640"
     inkscape:window-height="480"
     id="namedview4"
     showgrid="false"
     inkscape:zoom="6.4560004"
     inkscape:cx="36.995584"
     inkscape:cy="47.347303"
     inkscape:current-layer="g10" /><g
     id="g10"
     inkscape:groupmode="layer"
     inkscape:label="ink_ext_XXXXXX"
     transform="matrix(1.3333333,0,0,-1.3333333,0,32.000048)"
     sodipodi:insensitive="true"
     style="display:inline"><g
       id="g12"
       transform="matrix(0.00246479,0,0,0.00246479,-0.3239497,-0.3239137)"><path
         d="m 8917.57,7988.1 v 171.22 c 0,94.56 -76.65,171.21 -171.21,171.21 h -57.08 c -94.55,0 -171.21,-76.65 -171.21,-171.21 V 7988.1 h -171.21 c -94.57,0 -171.23,-76.65 -171.23,-171.22 v -57.07 c 0,-94.56 76.66,-171.21 171.23,-171.21 h 171.21 v -171.22 c 0,-94.56 76.66,-171.21 171.21,-171.21 h 57.08 c 94.56,0 171.21,76.65 171.21,171.21 v 171.22 h 171.22 c 94.55,0 171.21,76.65 171.21,171.21 v 57.07 c 0,94.57 -76.66,171.22 -171.21,171.22 h -171.22"
         style="fill:#f9dd05;fill-opacity:1;fill-rule:nonzero;stroke:none"
         id="path14"
         inkscape:connector-curvature="0" /><path
         d="m 5224.36,7111.04 -1794.82,10.88 881.38,-5599.31 h 2147.36 l 881.38,5599.31 -2115.3,-10.88"
         style="fill:#f68313;fill-opacity:1;fill-rule:nonzero;stroke:none"
         id="path16"
         inkscape:connector-curvature="0" /><path
         d="m 5224.36,7111.04 -1794.82,10.88 881.38,-5599.31 h 1698.66 l 881.38,5599.31 -1666.6,-10.88"
         style="fill:#f9dd05;fill-opacity:1;fill-rule:nonzero;stroke:none"
         id="path18"
         inkscape:connector-curvature="0" /><path
         d="m 2916.74,7121.92 h 4631.25 v 516.36 H 2916.74 v -516.36"
         style="fill:#ffffff;fill-opacity:1;fill-rule:nonzero;stroke:none"
         id="path20"
         inkscape:connector-curvature="0" /><path
         d="m 3036.95,7242.11 h 4390.84 v 275.97 H 3036.95 Z m 4631.24,-240.4 H 2796.55 v 756.77 h 4871.64 v -756.77"
         style="fill:#100f0d;fill-opacity:1;fill-rule:nonzero;stroke:none"
         id="path22"
         inkscape:connector-curvature="0" /><path
         d="m 6650.59,8477.37 h -2868.5 l -336.52,-774.54 h 3541.54 l -336.52,774.54"
         style="fill:#ffffff;fill-opacity:1;fill-rule:nonzero;stroke:none"
         id="path24"
         inkscape:connector-curvature="0" /><path
         d="m 3628.82,7823.02 h 3175.04 l -232.09,534.15 H 3860.9 Z M 7170.35,7582.63 H 3262.32 l 440.96,1014.94 h 3026.11 l 440.96,-1014.94"
         style="fill:#12110f;fill-opacity:1;fill-rule:nonzero;stroke:none"
         id="path26"
         inkscape:connector-curvature="0" /><path
         d="M 4093.17,1642.77 H 6355.53 L 7198.96,7001 5223.73,6990.84 3249.74,7001 Z M 6561.04,1402.43 H 3887.67 l -919.31,5840.39 2256,-11.58 2255.99,11.58 -919.31,-5840.39"
         style="fill:#100f0d;fill-opacity:1;fill-rule:nonzero;stroke:none"
         id="path28"
         inkscape:connector-curvature="0" /><path
         d="M 7403.76,5540.56 H 3028.92 l 394.95,-2226.82 1792.47,19.4 1792.47,-19.4 394.95,2226.82"
         style="fill:#ffffff;fill-opacity:1;fill-rule:nonzero;stroke:none"
         id="path30"
         inkscape:connector-curvature="0" /><path
         d="m 5215.03,3453.33 1693.23,-18.32 352.12,1985.35 H 3172.29 l 352.12,-1985.35 z m 1894.34,-260.89 -1894.34,20.54 -1891.72,-20.54 -437.79,2468.32 H 7547.15 L 7109.37,3192.44"
         style="fill:#100f0d;fill-opacity:1;fill-rule:nonzero;stroke:none"
         id="path32"
         inkscape:connector-curvature="0" /><path
         d="m 1398.37,6626.54 c -149.5,0 -271.11,-121.61 -271.11,-271.11 0,-149.46 121.61,-271.08 271.11,-271.08 149.47,0 271.08,121.62 271.08,271.08 0,149.5 -121.61,271.11 -271.08,271.11 z m 0,-929.45 c -363.02,0 -658.37,295.33 -658.37,658.34 0,363.02 295.35,658.37 658.37,658.37 363.02,0 658.34,-295.35 658.34,-658.37 0,-363.01 -295.32,-658.34 -658.34,-658.34"
         style="fill:#f1f1f1;fill-opacity:1;fill-rule:nonzero;stroke:none"
         id="path34"
         inkscape:connector-curvature="0" /><path
         d="m 8253.1,4690.17 c 171.1,0 309.81,-138.71 309.81,-309.82 0,-171.11 -138.71,-309.81 -309.81,-309.81 -171.12,0 -309.83,138.7 -309.83,309.81 0,171.11 138.71,309.82 309.83,309.82"
         style="fill:#f1f1f1;fill-opacity:1;fill-rule:nonzero;stroke:none"
         id="path36"
         inkscape:connector-curvature="0" /><path
         d="m 2444,2908.71 c 171.11,0 309.82,-138.71 309.82,-309.81 0,-171.11 -138.71,-309.82 -309.82,-309.82 -171.11,0 -309.82,138.71 -309.82,309.82 0,171.1 138.71,309.81 309.82,309.81"
         style="fill:#f46c35;fill-opacity:1;fill-rule:nonzero;stroke:none"
         id="path38"
         inkscape:connector-curvature="0" /></g></g></svg>