<?xml version="1.0" encoding="UTF-8" standalone="no"?>
<svg
   xmlns:dc="http://purl.org/dc/elements/1.1/"
   xmlns:cc="http://creativecommons.org/ns#"
   xmlns:rdf="http://www.w3.org/1999/02/22-rdf-syntax-ns#"
   xmlns:svg="http://www.w3.org/2000/svg"
   xmlns="http://www.w3.org/2000/svg"
   xmlns:sodipodi="http://sodipodi.sourceforge.net/DTD/sodipodi-0.dtd"
   xmlns:inkscape="http://www.inkscape.org/namespaces/inkscape"
   height="451"
   width="451"
   fill="#03A73E"
   version="1.1"
   x="0px"
   y="0px"
   viewBox="0 0 64 64"
   enable-background="new 0 0 64 64"
   xml:space="preserve"
   id="svg8"
   sodipodi:docname="like.svg"
   inkscape:version="0.92.3 (2405546, 2018-03-11)"
   inkscape:export-xdpi="63.860001"
   inkscape:export-ydpi="63.860001"><metadata
     id="metadata14"><rdf:RDF><cc:Work
         rdf:about=""><dc:format>image/svg+xml</dc:format><dc:type
           rdf:resource="http://purl.org/dc/dcmitype/StillImage" /></cc:Work></rdf:RDF></metadata><defs
     id="defs12" /><sodipodi:namedview
     pagecolor="#ffffff"
     bordercolor="#666666"
     borderopacity="1"
     objecttolerance="10"
     gridtolerance="10"
     guidetolerance="10"
     inkscape:pageopacity="0"
     inkscape:pageshadow="2"
     inkscape:window-width="640"
     inkscape:window-height="480"
     id="namedview10"
     showgrid="false"
     inkscape:zoom="0.66297118"
     inkscape:cx="-43.742475"
     inkscape:cy="225.5"
     inkscape:current-layer="svg8" /><g
     id="g6"
     transform="matrix(-1,0,0,1,64.057481,0)"><path
       d="m 62.3,29.9 c 0.3,-1.8 -0.6,-3.8 -2.1,-5 L 60,24.8 c -0.1,-0.1 -0.1,-0.1 -0.2,-0.1 l -0.2,-0.1 c 0,0 -0.1,0 -0.1,-0.1 l -0.3,-0.1 c -0.1,-0.1 -0.3,-0.1 -0.5,-0.2 -2.5,-0.8 -5.3,-0.5 -7.9,-0.2 -0.6,0.1 -6.2,0.1 -6.3,0.5 l 0.9,-2.9 C 45.9,20 46.3,18.5 46.8,16.9 47.5,14.6 47.7,12.8 47.5,11 47.2,8.8 45.9,6.7 44,5.5 c -1.1,-0.7 -2.3,-1 -3.5,-1 -0.1,0 -0.2,0 -0.3,0 -1.2,0.1 -1.9,0.7 -2,1.9 -0.1,1.5 -0.3,2.9 -0.5,4.2 -0.4,2.3 -1,4.2 -1.9,5.8 -0.5,0.9 -1.1,1.8 -1.9,2.5 -1,1 -2,2.2 -3.2,3.5 l -2.6,3 c -0.6,0.7 -1.2,1.4 -1.9,2 -0.1,0.1 -0.3,0.3 -0.5,0.5 -0.4,0.4 -1,0.7 -1.5,1 -0.3,0.1 -0.7,0.3 -1.3,0.4 -2.2,0.6 -3.5,1.2 -3.6,2.6 0,0.7 -0.1,1.4 -0.1,2 v 0.4 c 0,0.6 0,1.1 0,1.7 v 20.6 h 3.4 0.2 c 1.2,0.2 2.4,0.4 4,0.7 l 0.7,0.1 c 3.1,0.5 6,1 8.8,1.3 7,0.8 15.5,2.9 20.7,-3.5 2.1,-2.6 2.3,-6.3 2.8,-9.5 0.9,-5.3 1.8,-10.5 2.5,-15.8 z"
       id="path2"
       inkscape:connector-curvature="0"
       style="fill:#03a73e" /><path
       d="M 13.2,58.7 H 3.9 c -1.2,0 -2.2,-1 -2.2,-2.2 V 28.7 c 0,-1.2 1,-2.2 2.2,-2.2 h 9.3 c 1.2,0 2.2,1 2.2,2.2 v 27.8 c 0,1.2 -0.9,2.2 -2.2,2.2 z"
       id="path4"
       inkscape:connector-curvature="0"
       style="fill:#03a73e" /></g></svg>