<?xml version="1.0" encoding="UTF-8" standalone="no"?>
<!-- Generator: Adobe Illustrator 16.0.0, SVG Export Plug-In . SVG Version: 6.00 Build 0)  -->

<svg
   xmlns:dc="http://purl.org/dc/elements/1.1/"
   xmlns:cc="http://creativecommons.org/ns#"
   xmlns:rdf="http://www.w3.org/1999/02/22-rdf-syntax-ns#"
   xmlns:svg="http://www.w3.org/2000/svg"
   xmlns="http://www.w3.org/2000/svg"
   xmlns:sodipodi="http://sodipodi.sourceforge.net/DTD/sodipodi-0.dtd"
   xmlns:inkscape="http://www.inkscape.org/namespaces/inkscape"
   version="1.1"
   id="Capa_1"
   x="0px"
   y="0px"
   width="18"
   height="24.006294"
   viewBox="0 0 18.000001 24.006296"
   xml:space="preserve"
   sodipodi:docname="right.svg"
   inkscape:version="0.92.3 (2405546, 2018-03-11)"><metadata
   id="metadata41"><rdf:RDF><cc:Work
       rdf:about=""><dc:format>image/svg+xml</dc:format><dc:type
         rdf:resource="http://purl.org/dc/dcmitype/StillImage" /><dc:title></dc:title></cc:Work></rdf:RDF></metadata><defs
   id="defs39" /><sodipodi:namedview
   pagecolor="#ffffff"
   bordercolor="#666666"
   borderopacity="1"
   objecttolerance="10"
   gridtolerance="10"
   guidetolerance="10"
   inkscape:pageopacity="0"
   inkscape:pageshadow="2"
   inkscape:window-width="640"
   inkscape:window-height="480"
   id="namedview37"
   showgrid="false"
   fit-margin-top="0"
   fit-margin-left="4"
   fit-margin-right="0"
   fit-margin-bottom="0"
   inkscape:zoom="5.2512662"
   inkscape:cx="-43.347857"
   inkscape:cy="-0.95497551"
   inkscape:current-layer="Capa_1" />
<g
   id="g4"
   transform="matrix(0,-0.0842536,0.0842536,0,-1.0031473,24.006294)"
   style="fill:#9e9e9e;fill-opacity:1">
	<path
   d="M 282.082,76.511 267.808,62.238 c -1.902,-1.906 -4.093,-2.856 -6.57,-2.856 -2.471,0 -4.661,0.95 -6.563,2.856 L 142.466,174.441 30.262,62.241 c -1.903,-1.906 -4.093,-2.856 -6.567,-2.856 -2.475,0 -4.665,0.95 -6.567,2.856 L 2.856,76.515 C 0.95,78.417 0,80.607 0,83.082 c 0,2.473 0.953,4.663 2.856,6.565 l 133.043,133.046 c 1.902,1.903 4.093,2.854 6.567,2.854 2.474,0 4.661,-0.951 6.562,-2.854 L 282.082,89.647 c 1.902,-1.903 2.847,-4.093 2.847,-6.565 0,-2.475 -0.945,-4.665 -2.847,-6.571 z"
   id="path2"
   inkscape:connector-curvature="0"
   style="fill:#9e9e9e;fill-opacity:1" />
</g>
<g
   id="g6"
   transform="translate(-20.006294,-211.54699)">
</g>
<g
   id="g8"
   transform="translate(-20.006294,-211.54699)">
</g>
<g
   id="g10"
   transform="translate(-20.006294,-211.54699)">
</g>
<g
   id="g12"
   transform="translate(-20.006294,-211.54699)">
</g>
<g
   id="g14"
   transform="translate(-20.006294,-211.54699)">
</g>
<g
   id="g16"
   transform="translate(-20.006294,-211.54699)">
</g>
<g
   id="g18"
   transform="translate(-20.006294,-211.54699)">
</g>
<g
   id="g20"
   transform="translate(-20.006294,-211.54699)">
</g>
<g
   id="g22"
   transform="translate(-20.006294,-211.54699)">
</g>
<g
   id="g24"
   transform="translate(-20.006294,-211.54699)">
</g>
<g
   id="g26"
   transform="translate(-20.006294,-211.54699)">
</g>
<g
   id="g28"
   transform="translate(-20.006294,-211.54699)">
</g>
<g
   id="g30"
   transform="translate(-20.006294,-211.54699)">
</g>
<g
   id="g32"
   transform="translate(-20.006294,-211.54699)">
</g>
<g
   id="g34"
   transform="translate(-20.006294,-211.54699)">
</g>
</svg>