<?xml version="1.0" encoding="UTF-8" standalone="no"?>
<svg
   xmlns:dc="http://purl.org/dc/elements/1.1/"
   xmlns:cc="http://creativecommons.org/ns#"
   xmlns:rdf="http://www.w3.org/1999/02/22-rdf-syntax-ns#"
   xmlns:svg="http://www.w3.org/2000/svg"
   xmlns="http://www.w3.org/2000/svg"
   version="1.1"
   id="svg2"
   xml:space="preserve"
   width="22"
   height="15.473577"
   viewBox="0 0 22 15.473577"><metadata
     id="metadata8"><rdf:RDF><cc:Work
         rdf:about=""><dc:format>image/svg+xml</dc:format><dc:type
           rdf:resource="http://purl.org/dc/dcmitype/StillImage" /><dc:title></dc:title></cc:Work></rdf:RDF></metadata><defs
     id="defs6"><clipPath
       clipPathUnits="userSpaceOnUse"
       id="clipPath566"><path
         d="m 208.204,102.117 24.318,0 0,-14.24 -24.318,0 z"
         id="path564" /></clipPath></defs><g
     transform="scale(0.18333333,0.18333333)"
     id="g4140"><path
       id="path558"
       style="fill:#ffffff;fill-opacity:1;fill-rule:nonzero;stroke:none"
       d="m 47.60676,57.76533 32.424,-16.8 -32.424,-16.916 z" /><g
       id="g574"
       transform="matrix(1.3333333,0,0,-1.3333333,-229.9987,160.20546)"><g
         style="opacity:0.119995"
         id="g572"
         clip-path="url(#clipPath566)"><g
           id="g570"
           transform="translate(208.2041,102.1172)"><path
             id="path568"
             style="fill:#3b1211;fill-opacity:1;fill-rule:evenodd;stroke:none"
             d="m 0,0 21.326,-14.24 2.992,1.552 z" /></g></g></g><path
       id="path578"
       style="fill:#e62d27;fill-opacity:1;fill-rule:nonzero;stroke:none"
       d="m 47.61196,57.76533 -0.005,-33.716 32.424,16.916 z M 118.80262,18.208 c 0,0 -1.17333,-8.26934 -4.77199,-11.912 C 109.46929,1.51733 104.35329,1.49466 102.00796,1.21466 85.21596,0 60.02663,0 60.02663,0 l -0.0533,0 c 0,0 -25.188,0 -41.98133,1.21466 C 15.64667,1.49466 10.53333,1.51733 5.96933,6.296 2.37067,9.93866 1.2,18.208 1.2,18.208 c 0,0 -1.2,9.71066 -1.2,19.42133 l 0,9.10533 c 0,9.70934 1.2,19.42 1.2,19.42 0,0 1.17067,8.26934 4.76933,11.912 4.564,4.78 10.56,4.62667 13.23067,5.128 9.60133,0.92134 40.8,1.20667 40.8,1.20667 0,0 25.216,-0.0387 42.008,-1.252 2.34533,-0.28 7.46133,-0.30267 12.02267,-5.08267 3.59866,-3.64266 4.77199,-11.912 4.77199,-11.912 0,0 1.19734,-9.71066 1.19734,-19.42 l 0,-9.10533 C 120,27.91866 118.80266,18.208 118.80266,18.208" /></g></svg>